<svg width="100" height="57" viewBox="0 0 903 455" fill="none" xmlns="http://www.w3.org/2000/svg">
<path d="M8.80207 374.494V273.221H75.856V290.875H30.2138V315.006H71.4055V332.66H30.2138V374.494H8.80207ZM210.477 323.858C210.477 334.902 208.383 344.297 204.197 352.044C200.043 359.791 194.373 365.709 187.186 369.797C180.032 373.852 171.988 375.879 163.054 375.879C154.054 375.879 145.978 373.835 138.824 369.747C131.67 365.659 126.016 359.742 121.863 351.995C117.709 344.248 115.632 334.869 115.632 323.858C115.632 312.814 117.709 303.419 121.863 295.671C126.016 287.924 131.67 282.023 138.824 277.968C145.978 273.88 154.054 271.837 163.054 271.837C171.988 271.837 180.032 273.88 187.186 277.968C194.373 282.023 200.043 287.924 204.197 295.671C208.383 303.419 210.477 312.814 210.477 323.858ZM188.768 323.858C188.768 316.704 187.697 310.671 185.554 305.759C183.444 300.847 180.461 297.122 176.604 294.583C172.747 292.045 168.23 290.776 163.054 290.776C157.879 290.776 153.362 292.045 149.505 294.583C145.648 297.122 142.648 300.847 140.505 305.759C138.395 310.671 137.34 316.704 137.34 323.858C137.34 331.012 138.395 337.044 140.505 341.956C142.648 346.868 145.648 350.594 149.505 353.132C153.362 355.67 157.879 356.94 163.054 356.94C168.23 356.94 172.747 355.67 176.604 353.132C180.461 350.594 183.444 346.868 185.554 341.956C187.697 337.044 188.768 331.012 188.768 323.858ZM316.046 273.221H337.457V338.989C337.457 346.374 335.694 352.835 332.166 358.374C328.672 363.912 323.776 368.231 317.48 371.33C311.183 374.395 303.848 375.928 295.475 375.928C287.068 375.928 279.717 374.395 273.42 371.33C267.123 368.231 262.228 363.912 258.733 358.374C255.239 352.835 253.492 346.374 253.492 338.989V273.221H274.903V337.16C274.903 341.017 275.744 344.445 277.425 347.445C279.14 350.445 281.546 352.802 284.645 354.517C287.744 356.231 291.354 357.088 295.475 357.088C299.628 357.088 303.238 356.231 306.304 354.517C309.403 352.802 311.793 350.445 313.474 347.445C315.189 344.445 316.046 341.017 316.046 337.16V273.221ZM466.935 273.221V374.494H448.441L404.381 310.754H403.64V374.494H382.228V273.221H401.019L444.732 336.913H445.623V273.221H466.935ZM547.681 374.494H511.78V273.221H547.977C558.164 273.221 566.933 275.249 574.285 279.303C581.636 283.325 587.29 289.111 591.246 296.66C595.235 304.21 597.229 313.243 597.229 323.759C597.229 334.308 595.235 343.374 591.246 350.956C587.29 358.539 581.603 364.357 574.186 368.412C566.801 372.467 557.966 374.494 547.681 374.494ZM533.192 356.149H546.79C553.12 356.149 558.444 355.028 562.763 352.786C567.114 350.511 570.378 347 572.554 342.253C574.763 337.473 575.867 331.308 575.867 323.759C575.867 316.275 574.763 310.16 572.554 305.413C570.378 300.666 567.131 297.171 562.812 294.93C558.494 292.688 553.169 291.567 546.84 291.567H533.192V356.149ZM814.535 290.875V273.221H897.71V290.875H866.705V374.494H845.541V290.875H814.535Z" fill="#64B2E2"/>
<path d="M205.893 420.55V417.487H227.278V420.55H218.312V446H214.86V420.55H205.893ZM240.252 446V417.487H243.705V430.184H258.909V417.487H262.361V446H258.909V433.247H243.705V446H240.252ZM276.919 446V417.487H294.127V420.55H280.372V430.184H293.236V433.247H280.372V442.937H294.35V446H276.919ZM331.847 446L324.05 417.487H327.558L333.517 440.709H333.796L339.866 417.487H343.764L349.834 440.709H350.113L356.072 417.487H359.58L351.784 446H348.219L341.927 423.278H341.704L335.411 446H331.847ZM370.476 446H366.856L377.326 417.487H380.89L391.36 446H387.74L379.22 421.998H378.997L370.476 446ZM371.813 434.862H386.404V437.925H371.813V434.862ZM398.086 417.487H402.04L409.948 430.797H410.282L418.19 417.487H422.144L411.842 434.249V446H408.389V434.249L398.086 417.487ZM450.477 417.487H454.431L462.339 430.797H462.673L470.581 417.487H474.535L464.232 434.249V446H460.779V434.249L450.477 417.487ZM509.363 431.743C509.363 434.751 508.82 437.349 507.735 439.54C506.649 441.73 505.159 443.42 503.265 444.608C501.372 445.796 499.209 446.39 496.777 446.39C494.346 446.39 492.183 445.796 490.29 444.608C488.396 443.42 486.906 441.73 485.82 439.54C484.735 437.349 484.192 434.751 484.192 431.743C484.192 428.736 484.735 426.137 485.82 423.947C486.906 421.756 488.396 420.067 490.29 418.879C492.183 417.691 494.346 417.097 496.777 417.097C499.209 417.097 501.372 417.691 503.265 418.879C505.159 420.067 506.649 421.756 507.735 423.947C508.82 426.137 509.363 428.736 509.363 431.743ZM506.022 431.743C506.022 429.274 505.609 427.191 504.783 425.492C503.966 423.794 502.857 422.508 501.455 421.636C500.063 420.763 498.504 420.327 496.777 420.327C495.051 420.327 493.487 420.763 492.086 421.636C490.693 422.508 489.584 423.794 488.758 425.492C487.941 427.191 487.533 429.274 487.533 431.743C487.533 434.212 487.941 436.296 488.758 437.995C489.584 439.693 490.693 440.979 492.086 441.851C493.487 442.724 495.051 443.16 496.777 443.16C498.504 443.16 500.063 442.724 501.455 441.851C502.857 440.979 503.966 439.693 504.783 437.995C505.609 436.296 506.022 434.212 506.022 431.743ZM541.526 417.487H544.979V436.366C544.979 438.315 544.519 440.055 543.601 441.587C542.691 443.109 541.405 444.311 539.744 445.192C538.083 446.065 536.133 446.501 533.897 446.501C531.66 446.501 529.711 446.065 528.049 445.192C526.388 444.311 525.098 443.109 524.179 441.587C523.269 440.055 522.814 438.315 522.814 436.366V417.487H526.267V436.087C526.267 437.479 526.573 438.719 527.186 439.804C527.798 440.881 528.671 441.73 529.803 442.352C530.945 442.965 532.309 443.271 533.897 443.271C535.484 443.271 536.848 442.965 537.99 442.352C539.131 441.73 540.004 440.881 540.607 439.804C541.22 438.719 541.526 437.479 541.526 436.087V417.487ZM578.191 446V417.487H581.644V442.937H594.898V446H578.191ZM630.837 431.743C630.837 434.751 630.294 437.349 629.208 439.54C628.122 441.73 626.632 443.42 624.739 444.608C622.845 445.796 620.683 446.39 618.251 446.39C615.819 446.39 613.657 445.796 611.763 444.608C609.87 443.42 608.38 441.73 607.294 439.54C606.208 437.349 605.665 434.751 605.665 431.743C605.665 428.736 606.208 426.137 607.294 423.947C608.38 421.756 609.87 420.067 611.763 418.879C613.657 417.691 615.819 417.097 618.251 417.097C620.683 417.097 622.845 417.691 624.739 418.879C626.632 420.067 628.122 421.756 629.208 423.947C630.294 426.137 630.837 428.736 630.837 431.743ZM627.496 431.743C627.496 429.274 627.083 427.191 626.257 425.492C625.44 423.794 624.331 422.508 622.929 421.636C621.537 420.763 619.977 420.327 618.251 420.327C616.525 420.327 614.961 420.763 613.559 421.636C612.167 422.508 611.058 423.794 610.232 425.492C609.415 427.191 609.007 429.274 609.007 431.743C609.007 434.212 609.415 436.296 610.232 437.995C611.058 439.693 612.167 440.979 613.559 441.851C614.961 442.724 616.525 443.16 618.251 443.16C619.977 443.16 621.537 442.724 622.929 441.851C624.331 440.979 625.44 439.693 626.257 437.995C627.083 436.296 627.496 434.212 627.496 431.743ZM659.881 424.615C659.714 423.204 659.036 422.109 657.848 421.329C656.66 420.55 655.203 420.16 653.477 420.16C652.214 420.16 651.11 420.364 650.163 420.772C649.226 421.181 648.492 421.742 647.963 422.457C647.444 423.172 647.184 423.984 647.184 424.893C647.184 425.655 647.365 426.309 647.727 426.857C648.098 427.395 648.571 427.845 649.147 428.207C649.722 428.56 650.326 428.852 650.957 429.084C651.588 429.307 652.168 429.488 652.697 429.627L655.593 430.407C656.335 430.602 657.162 430.871 658.071 431.214C658.99 431.558 659.867 432.026 660.702 432.62C661.547 433.205 662.243 433.957 662.791 434.876C663.338 435.795 663.612 436.923 663.612 438.259C663.612 439.8 663.209 441.192 662.401 442.436C661.603 443.68 660.433 444.668 658.893 445.401C657.361 446.135 655.5 446.501 653.31 446.501C651.268 446.501 649.499 446.172 648.005 445.513C646.52 444.854 645.351 443.935 644.497 442.756C643.652 441.577 643.174 440.208 643.063 438.649H646.627C646.72 439.726 647.082 440.617 647.713 441.322C648.353 442.018 649.161 442.538 650.135 442.881C651.119 443.215 652.177 443.383 653.31 443.383C654.628 443.383 655.811 443.169 656.86 442.742C657.909 442.306 658.739 441.703 659.352 440.932C659.965 440.153 660.271 439.243 660.271 438.203C660.271 437.257 660.006 436.486 659.477 435.892C658.948 435.298 658.252 434.816 657.389 434.444C656.526 434.073 655.593 433.748 654.59 433.47L651.082 432.467C648.854 431.827 647.091 430.913 645.791 429.725C644.492 428.537 643.842 426.982 643.842 425.061C643.842 423.464 644.274 422.072 645.137 420.884C646.01 419.686 647.179 418.758 648.646 418.099C650.121 417.431 651.769 417.097 653.588 417.097C655.426 417.097 657.059 417.426 658.489 418.085C659.918 418.735 661.051 419.626 661.886 420.758C662.731 421.891 663.176 423.176 663.222 424.615H659.881ZM675.375 420.55V417.487H696.76V420.55H687.794V446H684.341V420.55H675.375ZM731.858 417.487V446H728.406V417.487H731.858ZM744.867 420.55V417.487H766.252V420.55H757.286V446H753.833V420.55H744.867Z" fill="#64B2E2"/>
<rect x="739.111" y="224.213" width="30.1089" height="111.294" fill="#64B2E2"/>
<path d="M732.39 287.886H778.091V355.997C778.091 368.617 767.86 378.847 755.24 378.847C742.62 378.847 732.39 368.617 732.39 355.997V287.886Z" fill="#64B2E2"/>
<ellipse cx="754.681" cy="119.854" rx="101.08" ry="100.592" fill="white"/>
<rect x="739.111" y="112.92" width="30.1089" height="111.294" fill="white"/>
<ellipse cx="755.24" cy="120.411" rx="68.6053" ry="68.2744" fill="#64B2E2"/>
<ellipse cx="714.077" cy="71.9976" rx="39.9158" ry="39.7233" fill="white"/>
<path d="M861.301 120.411C861.301 178.598 813.884 225.89 755.239 225.89C696.594 225.89 649.177 178.598 649.177 120.411C649.177 62.2248 696.594 14.9323 755.239 14.9323C813.884 14.9323 861.301 62.2248 861.301 120.411Z" stroke="#64B2E2" stroke-width="29.8646"/>
</svg>
